<?xml version="1.0" standalone="no"?><!DOCTYPE svg PUBLIC "-//W3C//DTD SVG 1.1//EN" "http://www.w3.org/Graphics/SVG/1.1/DTD/svg11.dtd"><svg t="1667480050799" class="icon" viewBox="0 0 1024 1024" version="1.1" xmlns="http://www.w3.org/2000/svg" p-id="8343" width="48" height="48" xmlns:xlink="http://www.w3.org/1999/xlink"><path d="M649.524 551.186h-50.087v72.956H651.8c18.263 0 47.799-4.921 47.799-37.175 0-32.256-25.066-35.78-50.074-35.78z m0 0" p-id="8344" fill="#ffffff"></path><path d="M859.77 293.593c-54.648 0-98.945 44.297-98.945 98.946 0 9.505 1.424 18.663 3.92 27.363l-123.58 12.346-87.243-74.724c27.887-17.5 46.482-48.434 46.482-83.784 0-54.645-44.296-98.943-98.938-98.943-54.649 0-98.95 44.298-98.95 98.943 0 35.65 18.915 66.795 47.193 84.21l-86.753 74.298-104.199-10.412a98.734 98.734 0 0 0 4.417-29.297c0-54.65-44.297-98.946-98.937-98.946-54.65 0-98.947 44.297-98.947 98.946 0 54.64 44.297 98.938 98.947 98.938 7.199 0 14.194-0.814 20.959-2.267l98.26 359.992h437.195l99.875-365.85a98.563 98.563 0 0 0 39.244 8.125c54.641 0 98.938-44.297 98.938-98.938 0.001-54.65-44.296-98.946-98.937-98.946zM390.703 731.196h-27.499l-78.467-204.091h29.016l63.272 181.679 65.614-181.679h27.354l-79.29 204.091z m134.694 0h-26.8V527.104h26.8v204.092z m125.994-82.97h-51.954v82.97h-26.8V527.104h76.398c31.824 0 78.195 2.766 78.195 59.025 0 56.256-50.559 62.097-75.84 62.097z m0 0" p-id="8345" fill="#ffffff"></path></svg>